<?xml version="1.0" encoding="UTF-8"?>
<!DOCTYPE svg PUBLIC "-//W3C//DTD SVG 1.1//EN" "http://www.w3.org/Graphics/SVG/1.1/DTD/svg11.dtd">
<!-- Creator: CorelDRAW -->
<svg xmlns="http://www.w3.org/2000/svg" xml:space="preserve" width="33.8666mm" height="33.8666mm" version="1.1" style="shape-rendering:geometricPrecision; text-rendering:geometricPrecision; image-rendering:optimizeQuality; fill-rule:evenodd; clip-rule:evenodd"
viewBox="0 0 3386.66 3386.66"
 xmlns:xlink="http://www.w3.org/1999/xlink"
 xmlns:xodm="http://www.corel.com/coreldraw/odm/2003">
 <defs>
  <style type="text/css">
   <![CDATA[
    .fil0 {fill:black}
   ]]>
  </style>
 </defs>
 <g id="Layer_x0020_1">
  <metadata id="CorelCorpID_0Corel-Layer"/>
  <path class="fil0" d="M769.77 2303.44c2.61,-5.4 136.75,-138.32 152.94,-154.28 13.91,-13.72 32.02,-38.86 63.37,-38.96 30.76,-0.11 44.92,20.23 63.41,38.88 109.88,110.9 223.7,221.73 332.75,332.67 7.66,7.8 14.24,22.52 14.89,36.83 1.5,32.56 -23.57,50.82 -37.39,64.73 -17.33,17.45 -33.8,33.91 -51.2,51.26l-102.87 103.43c-6.91,-3.09 -348.23,-346.64 -381.2,-379.78 -18.27,-18.35 -37.24,-36.06 -54.7,-54.78zm212.62 -83.94c-25.22,5.78 -46.65,29.16 -38.81,61.56 15.08,62.33 112.18,43.69 98.62,-23.52 -4.74,-23.48 -30.06,-44.85 -59.81,-38.04zm563.57 -828.9c-41.59,7.28 -46.01,61.35 -9.6,76.74 10.91,4.62 21.88,8.84 32.89,13.32 21.9,8.93 42.65,17.22 64.74,26.2 15.09,6.13 51.93,24.63 68.73,22.24 23.64,-3.36 42.85,-28.14 31.84,-54.99 -8.74,-21.33 -32.48,-25.96 -55.36,-35.6 -21.07,-8.87 -43.12,-17.43 -64.68,-26.23 -15.14,-6.19 -52.11,-24.55 -68.56,-21.68zm-0.02 -109.75c-23.97,4.01 -41.41,27.19 -31.62,54.11 7.67,21.07 32.56,26.82 54.93,35.99 21.72,8.9 43.28,17.06 64.75,26.21 14.59,6.22 52.94,24.36 68.53,22.2 23.23,-3.23 43.72,-27.26 32.1,-54.96 -9,-21.44 -30.85,-25.7 -55.48,-35.55 -22.36,-8.95 -42.85,-17.36 -64.6,-26.29 -15.54,-6.39 -51.6,-24.55 -68.61,-21.71zm824.67 -214.96l-0.11 430.49 -412.29 176.93 0.3 -434.93 412.1 -172.49zm-905.22 -0.24l412.34 175.85 0.06 431.64c-10.55,-2.06 -286.45,-122.44 -309.38,-132.45 -21.72,-9.49 -84.46,-37.56 -103.14,-44.1l0.12 -430.94zm14.22 -81.21c3.61,-3.4 8.4,-4.63 13.7,-6.88 5.3,-2.23 8.77,-3.81 14.08,-6.09 117.56,-50.51 238.48,-100.3 355.23,-151.38 66.7,-29.19 39.85,-26.24 109.55,2.17 91.31,37.22 183.42,78.03 274.52,115.22 13.78,5.62 104.2,42.49 109.36,47.01 -72.17,29.9 -147.48,60.64 -219.6,92.06l-164.7 69.13c-68.75,27.58 -40.6,31.84 -110.75,1.32l-163.88 -69.92c-69.92,-28.76 -150.08,-66.26 -217.51,-92.64zm423.23 -266.32c-19.94,3.41 -166.29,68.18 -187.44,77.4 -31.58,13.76 -61.39,26.02 -93.07,39.71l-186.2 79.4c-18.99,8.14 -28,13.81 -38.23,28.18 -11.17,15.67 -12.77,30.38 -12.77,52.92l0 396.93c0,27.05 -3.2,109.1 2.78,129.35 10.99,37.26 36.93,44.51 72.83,59.93l417.8 179.79c18.06,7.73 31.52,13.88 54.39,9.11 13.64,-2.86 33.49,-12.87 46.52,-18.43l417.56 -179.99c37.43,-16.04 54.18,-34.8 54.11,-78.72l-0.02 -396.93c0,-28.87 3.41,-107.87 -2.26,-130.46 -9.55,-38.08 -35.73,-46.26 -71.62,-61.23l-420.94 -176.65c-18.51,-7.7 -30.36,-14.25 -53.44,-10.31zm-473.65 1685.57c-7.64,-4.43 -216.37,-215.37 -234.03,-232.86 -13.46,-13.33 -25.64,-25.52 -38.96,-38.96l-39.11 -38.56c1.67,-11.61 26.33,-46.52 32.72,-54.84 12.17,-15.88 27.12,-33.26 41.17,-45.42l22.96 -20.34c103.97,-81.67 236.35,-109.6 366.03,-62.55 44.24,16.06 66.03,38.87 130.63,42.55 55,3.13 117.45,0.51 173.26,0.51 57.73,0 115.47,0 173.2,0 29.46,0 52.4,-2.76 74.85,11.22 47.35,29.49 39.76,89.18 6.89,113.33 -22.65,16.64 -38.82,14.76 -71.64,14.76l-259.81 0c-20.33,0 -67.36,-3 -82.73,4.04 -17.69,8.1 -32.95,31.82 -21.85,57.4 10.15,23.42 28.35,26.45 59.84,26.45l259.81 0c78.26,0 143.75,8.43 198.04,-61.39 20.75,-26.69 32.7,-61.37 32.6,-97.07 -0.04,-15.01 -3.91,-26.54 -4.41,-39.45l40.69 -38.58c16.16,-17.71 62.48,-58.43 81.06,-77.7 14.4,-14.91 26.7,-25.25 40.4,-39.03 26.91,-27.08 53.39,-52.36 80.75,-77.99 13.91,-13.04 22.23,-26.45 44.04,-35.35 60.6,-24.7 130.51,48.94 74.14,114.6 -36.31,42.3 -71.83,89.55 -107.48,132.11 -52.37,62.55 -108.07,133.3 -160.31,197.64 -6.36,7.81 -12.4,14.54 -18.18,22.2 -11.66,15.47 -23.68,28.43 -35.57,43.84 -10.91,14.12 -62.65,79.62 -73.34,86.83 -18.17,12.24 -47.25,8.23 -71.19,8.23 -159.73,0 -319.47,0 -479.2,0 -78.24,0 -127.01,2.56 -191.18,46.97 -19.37,13.41 -39.57,34.25 -44.09,37.41zm-382.38 -369.08c-10.16,-2.46 -19.68,-7.43 -31.89,-9.75 -12.49,-2.38 -25.67,-3.16 -38.82,-2.34 -52.12,3.22 -78.32,27.33 -108.23,57.35l-124.12 124.13c-14.11,14.06 -27.08,27.08 -41.14,41.15 -11.97,11.96 -29.86,24.34 -33.62,48.56 -4.68,30.14 11.71,46.1 24.28,58.62l453.92 453.93c11.53,11.57 25.63,30.36 51.13,32.53 29.81,2.54 43.87,-13.22 56.39,-25.67 27.85,-27.7 54.53,-54.46 82.27,-82.26 27.97,-28.03 55.16,-54.86 82.99,-83.01 34.34,-34.74 71,-70.16 64.68,-139.64 -2.42,-26.63 -8.68,-25.52 -0.85,-33.21 56.5,-55.49 92.71,-67.28 179.21,-67.28l497.97 0c58.22,-0.01 95.66,-5.76 134.24,-52.33l138.55 -170.32c72.81,-89.04 148.82,-185.97 222.42,-274.14 6.13,-7.34 12.1,-16.01 18.71,-23.11 20.45,-21.99 35.63,-49.06 41.16,-81.58 16.77,-98.51 -55.59,-177.05 -141.4,-184.61 -50.87,-4.47 -97.17,16.6 -121.98,42.53 -7,7.31 -14.55,13.06 -21.67,20.23 -21.23,21.37 -225.69,219.24 -230.96,221.84 -13.21,-13.44 -36.4,-26.48 -59.82,-33.86 -28.41,-8.96 -54.86,-7.02 -86.06,-7.02l-280.02 0c-54.97,0 -76.01,3.46 -122.41,-19.81 -154.55,-77.51 -338.85,-54.03 -472.03,42.41 -56.81,41.12 -97.63,85.87 -132.9,146.66z"/>
 </g>
</svg>
