<?xml version="1.0" encoding="UTF-8"?>
<!DOCTYPE svg PUBLIC "-//W3C//DTD SVG 1.1//EN" "http://www.w3.org/Graphics/SVG/1.1/DTD/svg11.dtd">
<!-- Creator: CorelDRAW -->
<svg xmlns="http://www.w3.org/2000/svg" xml:space="preserve" width="33.8666mm" height="33.8666mm" version="1.1" style="shape-rendering:geometricPrecision; text-rendering:geometricPrecision; image-rendering:optimizeQuality; fill-rule:evenodd; clip-rule:evenodd"
viewBox="0 0 3386.66 3386.66"
 xmlns:xlink="http://www.w3.org/1999/xlink"
 xmlns:xodm="http://www.corel.com/coreldraw/odm/2003">
 <defs>
  <style type="text/css">
   <![CDATA[
    .fil0 {fill:black}
   ]]>
  </style>
 </defs>
 <g id="Layer_x0020_1">
  <metadata id="CorelCorpID_0Corel-Layer"/>
  <path class="fil0" d="M2054.53 2726.95l-723.38 -0.23c8.37,-100.2 58.6,-74.29 149.29,-73.99l418.02 0.01c103.36,-0.17 151.37,-28.58 156.07,74.21zm-1016.26 -767.38c37.75,6.54 41.25,14.28 68.85,-17.52 10.16,0 5.04,1.61 5.04,-14.83 0,-67.47 -115.39,-69.82 -73.89,32.35zm594.83 389.7l122.29 -1.52 50.34 215.07 -222.91 2.76 50.28 -216.31zm-50.64 -671.26c-15,-154.1 -4.8,-330.11 177.93,-334.73 43.02,-1.08 82.1,40.25 118.11,66.29 39.16,28.32 75.82,37.28 80.44,99.78 4.57,61.73 -21.55,101.61 -55.69,124.2 -46.15,30.53 -107.96,17.8 -164.43,17.48 -72.9,-0.42 -96.84,14.12 -156.36,26.98zm395.62 -309.78c-28.45,-9.98 -85.78,-52.25 -109.27,-77.98l77.63 -122.39c26.84,15.21 101.23,65.47 121.33,92.53 -20.56,26.89 -64.38,86.89 -89.69,107.84zm-442.32 424.05c59.52,17.36 56.73,-24.74 113.65,-44.05 103.09,-34.97 321.38,53.79 385.67,-153.02 65.68,-211.29 -150.79,15.96 247.84,-458.05 137.86,-163.93 110.92,-184.48 232.61,-184.48 96.01,0 105.72,57.82 105.22,148.14l0 773.09c-65.58,13.38 -1094.04,5.15 -1269.7,4.74 -51.02,-0.12 -142.44,-16.55 -147.86,40.01 -5.96,62.06 79.52,47.21 127.91,46.94 231.72,-1.29 1214.8,-12.02 1289.27,5.13 1.39,180.16 28.21,290.63 -114.8,290.63l-1622.28 0c-143.5,0 -115.73,-110.31 -114.86,-290.63 64.07,-14.75 161.49,19.01 166.74,-44.11 6.16,-73.93 -102.66,-39.57 -167.07,-52.71l-0.17 -793.19c-0.11,-103.29 32.76,-128.95 134.87,-128.39 358.1,1.96 721.08,4.73 1078.91,-0.09 -12.47,28.21 -179.25,291.21 -207.65,302.19 -48.9,18.9 -239.6,2.68 -281.08,236.74 -13.01,73.5 -6.02,252.12 42.78,301.11zm464.82 -701.09c19.13,-50.45 129.65,-200.3 168.13,-257.39 43.04,-63.87 124.48,-240.28 237.72,-150.85 50.94,40.21 46.8,102.48 12.16,152l-291.22 350.5c-26.9,-13.71 -110.98,-74.84 -126.79,-94.26zm-907.12 1721.82l1201.86 0c23.98,-22.36 26.12,-24.56 21.54,-71.66 -45.82,-22.45 -95.61,-14.64 -159.63,-14.64 -44.17,-12.16 12.36,-74.02 -75.05,-137.26 -49.79,-36.04 -115.21,-18.06 -183.73,-26.7l-54.63 -215c923.11,7.3 862.87,53.52 862.87,-410.58 0,-212.32 0,-424.65 0,-636.97 0,-230.2 51.7,-416.41 -199.4,-436.4 64.83,-200.04 -17.43,-227.07 -131.14,-290.15l-70.64 0c-32.1,17.76 -55.31,18.04 -85.25,43.14 -40.08,33.61 -157.88,211.34 -170.84,247.64 -302.81,10.35 -622.58,0.97 -927.27,0.97 -142.15,0 -314.39,-26.69 -395.39,59.37 -73.01,77.57 -44.59,300.11 -44.59,425.19 0,1028.57 -89.46,997.34 390.22,997.34 156.21,0 313.17,1.5 469.29,-0.35l-48.01 216.58c-127.06,13.95 -210.37,-22.55 -241.86,121.12 -11.77,53.68 11.58,23.14 -20.18,42.06 -64.45,0 -113.77,-7.99 -159.64,14.91 -4.59,46.88 -2.36,49.14 21.47,71.39z"/>
 </g>
</svg>
