<?xml version="1.0" encoding="UTF-8"?>
<!DOCTYPE svg PUBLIC "-//W3C//DTD SVG 1.1//EN" "http://www.w3.org/Graphics/SVG/1.1/DTD/svg11.dtd">
<!-- Creator: CorelDRAW -->
<svg xmlns="http://www.w3.org/2000/svg" xml:space="preserve" width="9.6518mm" height="9.6518mm" version="1.1" style="shape-rendering:geometricPrecision; text-rendering:geometricPrecision; image-rendering:optimizeQuality; fill-rule:evenodd; clip-rule:evenodd"
viewBox="0 0 965.18 965.18"
 xmlns:xlink="http://www.w3.org/1999/xlink"
 xmlns:xodm="http://www.corel.com/coreldraw/odm/2003">
 <defs>
  <style type="text/css">
   <![CDATA[
    .fil0 {fill:white}
   ]]>
  </style>
 </defs>
 <g id="Layer_x0020_1">
  <metadata id="CorelCorpID_0Corel-Layer"/>
  <g id="_2057999030976">
   <path class="fil0" d="M298.87 453.93l60.91 96.64 18.78 -12.93c45.32,111.57 124.13,152.32 221.58,48.58l10.24 22.11 207.92 -133.89 -11.6 -230.24 -510.91 23.94 3.08 185.79zm281.31 17.06c-3.3,-14.17 6.3,-84.62 11.01,-104.51 -18.23,-2.65 3.67,5.31 -34.04,1.69 -49.48,-4.74 -83.6,41.07 -76.69,93.6 1.94,14.76 6.62,19.15 17.14,27.82 10.27,8.46 21.43,9.4 32.45,3.24l24.75 -19.34c4.18,8.45 1.58,10.59 12.16,15.12 11.23,4.86 18.89,3.37 26.31,0.31 22.96,-9.51 21.33,-10.01 33.34,-24.73 67.1,-82.37 -36.43,-194.72 -145.33,-128.63 -20.94,12.71 -45.5,36.57 -54.3,71.44 -16,63.45 14.12,133.69 84.08,146.17 39.44,7.05 63.75,-3.11 91.1,-13.76 19,-7.39 18.64,-11.29 33.07,-24.81 23.24,-21.81 9.54,-25.91 -2.89,-14.2 -24.55,23.18 -37.22,32.21 -75.83,37.13 -49.6,6.32 -96.54,-24.39 -105.41,-67.27 -35.14,-169.83 176.33,-183.37 179.95,-63.5 0.72,24.25 -9.07,50.97 -28,63.94 -7.05,4.85 -13.41,3.46 -20.86,1.09 -0.5,-0.17 -1.37,-0.46 -2.01,-0.8z"/>
   <polygon class="fil0" points="907.07,438.93 803.16,906.06 616.78,628.59 "/>
   <path class="fil0" d="M81.18 779.53l705.29 157.63 -192.38 -290.1c-77.8,72.66 -185.26,54.5 -231.99,-60.2l-280.92 192.67z"/>
   <path class="fil0" d="M566.44 38.99l-372.22 212.13 77.64 108.77 -4.6 -117.46 487.95 -21.74c-0.28,-0.61 -0.7,-1.39 -0.92,-1.77l-130.22 -179.15c-4.99,-7.09 -18.26,-12.18 -29.73,-11.7 -9.83,1.52 -19.56,5.75 -27.9,10.92z"/>
   <polygon class="fil0" points="58.1,755.96 343.1,560.92 161.94,274.94 "/>
   <path class="fil0" d="M564.5 382.62c-27,-8.41 -40.85,1.97 -51.6,23.12 -16.37,32.21 -4.53,81.36 22.33,68.62 32.23,-15.29 20.69,-47.73 29.27,-91.74z"/>
   <path class="fil0" d="M846.6 427.74c18.02,-7.45 30.19,-16.98 39.7,-21.9l-42.57 -60.88 2.87 82.78z"/>
   <polygon class="fil0" points="846.05,343.84 885.18,401.57 848.55,423.68 "/>
  </g>
 </g>
</svg>
