<?xml version="1.0" encoding="UTF-8"?>
<!DOCTYPE svg PUBLIC "-//W3C//DTD SVG 1.1//EN" "http://www.w3.org/Graphics/SVG/1.1/DTD/svg11.dtd">
<!-- Creator: CorelDRAW -->
<svg xmlns="http://www.w3.org/2000/svg" xml:space="preserve" width="9.6518mm" height="9.6518mm" version="1.1" style="shape-rendering:geometricPrecision; text-rendering:geometricPrecision; image-rendering:optimizeQuality; fill-rule:evenodd; clip-rule:evenodd"
viewBox="0 0 965.18 965.18"
 xmlns:xlink="http://www.w3.org/1999/xlink"
 xmlns:xodm="http://www.corel.com/coreldraw/odm/2003">
 <defs>
  <style type="text/css">
   <![CDATA[
    .fil0 {fill:black}
    .fil1 {fill:#E4EBF3}
   ]]>
  </style>
 </defs>
 <g id="Layer_x0020_1">
  <metadata id="CorelCorpID_0Corel-Layer"/>
  <path class="fil0" d="M619.38 186.78l0 109.8 -62.92 2.74c0,0 -34.2,-10.95 -24.62,42.4 -2.74,30.1 -2.74,34.2 -2.74,34.2l88.54 -1.37 0.37 119.01 -87.54 1.37 0 284.52 -129.95 0 0 -283.15 -54.72 0 0 -121.75c0,0 56.09,-6.84 56.09,0 0,6.84 0,-103.96 0,-103.96 0,0 4.1,-82.07 91.65,-82.07 87.54,0 125.84,-1.74 125.84,-1.74z"/>
  <path class="fil1" d="M482.59 0.53c266.53,0 482.6,216.07 482.6,482.6 0,266.53 -216.07,482.6 -482.6,482.6 -266.53,0 -482.6,-216.07 -482.6,-482.6 0,-266.53 216.07,-482.6 482.6,-482.6zm0 33.87c247.82,0 448.73,200.91 448.73,448.73 0,247.82 -200.91,448.73 -448.73,448.73 -247.82,0 -448.73,-200.91 -448.73,-448.73 0,-247.82 200.91,-448.73 448.73,-448.73z"/>
 </g>
</svg>
