<?xml version="1.0" encoding="UTF-8"?>
<!DOCTYPE svg PUBLIC "-//W3C//DTD SVG 1.1//EN" "http://www.w3.org/Graphics/SVG/1.1/DTD/svg11.dtd">
<!-- Creator: CorelDRAW -->
<svg xmlns="http://www.w3.org/2000/svg" xml:space="preserve" width="9.6518mm" height="9.6518mm" version="1.1" style="shape-rendering:geometricPrecision; text-rendering:geometricPrecision; image-rendering:optimizeQuality; fill-rule:evenodd; clip-rule:evenodd"
viewBox="0 0 965.18 965.18"
 xmlns:xlink="http://www.w3.org/1999/xlink"
 xmlns:xodm="http://www.corel.com/coreldraw/odm/2003">
 <defs>
  <style type="text/css">
   <![CDATA[
    .fil0 {fill:none}
    .fil1 {fill:#FEFEFE}
   ]]>
  </style>
 </defs>
 <g id="Layer_x0020_1">
  <metadata id="CorelCorpID_0Corel-Layer"/>
  <path class="fil0" d="M482.58 0.53c266.53,0 482.6,216.07 482.6,482.6 0,266.53 -216.07,482.6 -482.6,482.6 -266.53,0 -482.6,-216.07 -482.6,-482.6 0,-266.53 216.07,-482.6 482.6,-482.6zm0 33.87c247.82,0 448.73,200.91 448.73,448.73 0,247.82 -200.91,448.73 -448.73,448.73 -247.82,0 -448.73,-200.91 -448.73,-448.73 0,-247.82 200.91,-448.73 448.73,-448.73z"/>
  <path class="fil1" d="M643.93 139.11l0 132.14 -75.73 3.29c0,0 -41.15,-13.17 -29.63,51.03 -3.29,36.22 -3.29,41.16 -3.29,41.16l106.56 -1.65 0.44 143.23 -105.35 1.64 0 342.42 -156.4 0 0 -340.77 -65.85 0 0 -146.52c0,0 67.5,-8.23 67.5,0 0,8.23 0,-125.11 0,-125.11 0,0 4.94,-98.78 110.3,-98.78 105.36,0 151.45,-2.08 151.45,-2.08z"/>
 </g>
</svg>
