<?xml version="1.0" encoding="UTF-8"?>
<!DOCTYPE svg PUBLIC "-//W3C//DTD SVG 1.1//EN" "http://www.w3.org/Graphics/SVG/1.1/DTD/svg11.dtd">
<!-- Creator: CorelDRAW -->
<svg xmlns="http://www.w3.org/2000/svg" xml:space="preserve" width="9.6518mm" height="9.6518mm" version="1.1" style="shape-rendering:geometricPrecision; text-rendering:geometricPrecision; image-rendering:optimizeQuality; fill-rule:evenodd; clip-rule:evenodd"
viewBox="0 0 965.18 965.18"
 xmlns:xlink="http://www.w3.org/1999/xlink"
 xmlns:xodm="http://www.corel.com/coreldraw/odm/2003">
 <defs>
  <style type="text/css">
   <![CDATA[
    .fil0 {fill:black}
    .fil1 {fill:#E4EBF3}
   ]]>
  </style>
 </defs>
 <g id="Layer_x0020_1">
  <metadata id="CorelCorpID_0Corel-Layer"/>
  <path class="fil0" d="M640.65 284.8c-20.15,0 -36.48,16.48 -36.48,36.81 0,20.33 16.33,36.8 36.48,36.8 20.14,0 36.47,-16.47 36.47,-36.8 0,-20.33 -16.33,-36.81 -36.47,-36.81zm-301.32 -98.02l286.52 0c84.19,0 153.07,69.51 153.07,154.47l0 283.74c0,84.95 -68.88,154.46 -153.07,154.46l-286.52 0c-84.19,0 -153.08,-69.51 -153.08,-154.46l0 -283.74c0,-84.96 68.89,-154.47 153.08,-154.47zm-0.02 62.53l286.55 0c50.1,0 91.11,41.37 91.11,91.94l0 283.74c0,50.57 -41.01,91.94 -91.11,91.94l-286.55 0c-50.09,0 -91.1,-41.37 -91.1,-91.94l0 -283.74c0,-50.57 41.01,-91.94 91.1,-91.94zm147.57 81.64c83.04,0 150.35,67.93 150.35,151.73 0,83.79 -67.31,151.72 -150.35,151.72 -83.04,0 -150.36,-67.93 -150.36,-151.72 0,-83.8 67.32,-151.73 150.36,-151.73zm0 62.53c-48.82,0 -88.4,39.93 -88.4,89.2 0,49.27 39.58,89.2 88.4,89.2 48.81,0 88.39,-39.93 88.39,-89.2 0,-49.27 -39.58,-89.2 -88.39,-89.2z"/>
  <path class="fil1" d="M482.59 0.53c266.53,0 482.6,216.07 482.6,482.6 0,266.53 -216.07,482.6 -482.6,482.6 -266.53,0 -482.6,-216.07 -482.6,-482.6 0,-266.53 216.07,-482.6 482.6,-482.6zm0 33.87c247.82,0 448.73,200.91 448.73,448.73 0,247.82 -200.91,448.73 -448.73,448.73 -247.82,0 -448.73,-200.91 -448.73,-448.73 0,-247.82 200.91,-448.73 448.73,-448.73z"/>
 </g>
</svg>
