<?xml version="1.0" encoding="UTF-8"?>
<!DOCTYPE svg PUBLIC "-//W3C//DTD SVG 1.1//EN" "http://www.w3.org/Graphics/SVG/1.1/DTD/svg11.dtd">
<!-- Creator: CorelDRAW -->
<svg xmlns="http://www.w3.org/2000/svg" xml:space="preserve" width="9.6518mm" height="9.6518mm" version="1.1" style="shape-rendering:geometricPrecision; text-rendering:geometricPrecision; image-rendering:optimizeQuality; fill-rule:evenodd; clip-rule:evenodd"
viewBox="0 0 965.18 965.18"
 xmlns:xlink="http://www.w3.org/1999/xlink"
 xmlns:xodm="http://www.corel.com/coreldraw/odm/2003">
 <defs>
  <style type="text/css">
   <![CDATA[
    .fil1 {fill:none}
    .fil0 {fill:#FEFEFE}
   ]]>
  </style>
 </defs>
 <g id="Layer_x0020_1">
  <metadata id="CorelCorpID_0Corel-Layer"/>
  <path class="fil0" d="M664.31 254.58c-23.16,0 -41.93,18.94 -41.93,42.31 0,23.38 18.77,42.32 41.93,42.32 23.17,0 41.94,-18.94 41.94,-42.32 0,-23.37 -18.77,-42.31 -41.94,-42.31zm-346.44 -112.7l329.43 0c96.8,0 176,79.92 176,177.6l0 326.22c0,97.68 -79.2,177.6 -176,177.6l-329.43 0c-96.79,0 -175.99,-79.92 -175.99,-177.6l0 -326.22c0,-97.68 79.2,-177.6 175.99,-177.6zm-0.01 71.88l329.46 0c57.59,0 104.74,47.57 104.74,105.72l0 326.22c0,58.14 -47.15,105.71 -104.74,105.71l-329.46 0c-57.59,0 -104.74,-47.57 -104.74,-105.71l0 -326.22c0,-58.15 47.15,-105.72 104.74,-105.72zm169.66 93.88c95.47,0 172.87,78.1 172.87,174.44 0,96.35 -77.4,174.45 -172.87,174.45 -95.47,0 -172.87,-78.1 -172.87,-174.45 0,-96.34 77.4,-174.44 172.87,-174.44zm0 71.88c-56.13,0 -101.63,45.92 -101.63,102.56 0,56.65 45.5,102.56 101.63,102.56 56.13,0 101.63,-45.91 101.63,-102.56 0,-56.64 -45.5,-102.56 -101.63,-102.56z"/>
  <path class="fil1" d="M482.58 0.53c266.53,0 482.6,216.07 482.6,482.6 0,266.53 -216.07,482.6 -482.6,482.6 -266.53,0 -482.6,-216.07 -482.6,-482.6 0,-266.53 216.07,-482.6 482.6,-482.6zm0 33.87c247.82,0 448.73,200.91 448.73,448.73 0,247.82 -200.91,448.73 -448.73,448.73 -247.82,0 -448.73,-200.91 -448.73,-448.73 0,-247.82 200.91,-448.73 448.73,-448.73z"/>
 </g>
</svg>
