<?xml version="1.0" encoding="UTF-8"?>
<!DOCTYPE svg PUBLIC "-//W3C//DTD SVG 1.1//EN" "http://www.w3.org/Graphics/SVG/1.1/DTD/svg11.dtd">
<!-- Creator: CorelDRAW -->
<svg xmlns="http://www.w3.org/2000/svg" xml:space="preserve" width="33.8666mm" height="33.8666mm" version="1.1" style="shape-rendering:geometricPrecision; text-rendering:geometricPrecision; image-rendering:optimizeQuality; fill-rule:evenodd; clip-rule:evenodd"
viewBox="0 0 3386.66 3386.66"
 xmlns:xlink="http://www.w3.org/1999/xlink"
 xmlns:xodm="http://www.corel.com/coreldraw/odm/2003">
 <defs>
  <style type="text/css">
   <![CDATA[
    .fil0 {fill:black}
   ]]>
  </style>
 </defs>
 <g id="Layer_x0020_1">
  <metadata id="CorelCorpID_0Corel-Layer"/>
  <path class="fil0" d="M1013.95 1150.47c23.35,-15.37 42.68,12.25 18.87,36.35l-27.45 29.91 -1.29 0.65c-20.86,10.45 -32.79,-1.87 -25.34,-22.88 5.89,-16.64 20.43,-34.3 35.21,-44.03zm689.72 1592.21c-12.25,6.09 -50.2,4.86 -63.57,1.14 -5.87,-1.63 -12.77,-3.75 -14.74,-10.27 -0.48,-1.57 -0.23,-3.48 -1.01,-4.58l-2.34 -3.26 1.26 -3.81c6.84,-20.85 17.65,-17.51 35.52,-16.05 14.28,1.16 30.56,-0.41 43.55,6.63l3.7 2 2.5 25.77 -4.87 2.43zm964.61 -790.63l-25.72 1.76 -2.37 -4.64c-7.56,-14.75 -1.84,-59.42 6.32,-73.67l2.04 -3.56 25.84 -2.39 2.39 4.93c7.71,15.89 2.44,58.83 -6.39,73.95l-2.11 3.62zm-758.77 778.05c-4.55,2.56 -37.64,7.68 -44.74,8.5 -10.69,1.23 -25.04,-0.2 -30.31,-11.23 -4.86,-10.18 1.93,-20.3 10.93,-25.13 5.36,-2.87 36.03,-7.07 44.02,-8.22 30.98,-4.47 40.41,24.66 20.1,36.08zm503.43 -1585.96c10.67,-8.27 21.54,-5.58 30.2,3.68 5.18,5.54 8.29,12.46 12.84,17.53 5.06,5.61 10.21,9.68 14.51,16.24 6.83,10.42 6.87,21.77 -4.22,29.36 -14.32,9.77 -23.15,3.1 -31.66,-8.34 -2.31,-3.12 -3.33,-5.19 -6,-8.06 -2.01,-2.16 -4.13,-3.78 -6.18,-6.03 -10.57,-11.66 -27.52,-30.38 -9.49,-44.38zm-1566.4 1025.67c-2.29,-7.22 -3.43,-16.24 0.92,-22.96 4.54,-7.04 12.77,-8.24 20.19,-5.18 18.32,7.57 29.55,35.75 34.34,53.25 3.72,13.56 -2.91,31.39 -19.26,27.99 -19.05,-3.97 -31.18,-37.31 -36.19,-53.1zm882.96 544.65c8.23,-5.28 39.62,-8.58 50.33,-8.9 8.87,-0.26 20.51,0.1 28.61,4.02 11.03,5.33 12.75,15.77 6.92,26.04 -8.17,14.38 -34.11,10.98 -48.32,11.7 -21.55,1.09 -44.76,4.24 -41.13,-27.12l0.43 -3.72 3.16 -2.02zm-886.04 -1288.78c18.73,-15.9 34.21,2.75 29.15,23.74l-0.1 0.44 -33.14 90.25 -1.8 1.4c-8.37,6.46 -19.42,8.57 -26.59,-0.68 -5.26,-6.78 -5.64,-16.9 -3.85,-24.98 2.28,-10.29 6.79,-21.04 10.22,-31.08 5.76,-16.81 12.68,-47.68 26.11,-59.09zm56.74 -51.11c-19.49,0.42 -30.73,-9.66 -23.84,-29.08 4.18,-11.8 11.94,-21.3 17.94,-32.03 6.5,-11.66 26.83,-50.04 37.58,-55.02 23.86,-11.05 33.19,12.47 22.45,32.5l-49.75 83.54 -4.38 0.09zm-120.73 346.85c-15.68,-13.82 -3.85,-54.77 -1.15,-72.9 1.68,-11.26 1.9,-24.67 5.65,-35.31 5.5,-15.62 17.88,-18.63 32.27,-11.53l2.89 1.42 1.06 3.05c6.39,18.16 -3.03,49.45 -5.44,68.72 -1.46,11.64 -1.4,22.69 -4.22,34.32 -4.14,16.98 -16.29,27.31 -31.06,12.23zm23.21 65.47c8.22,15.76 6.1,50.84 7.62,69.56 0.92,11.35 3.15,21.91 2.59,33.49 -0.79,16.36 -9.52,28.85 -27.22,20.65 -17.22,-7.98 -15.18,-51.63 -16.09,-68.23 -1.23,-22.65 -12.01,-67.01 27.55,-59.58l3.78 0.71 1.77 3.4zm36.07 305.36c-12.07,1.22 -21.07,-0.99 -26.54,-12.62 -5.03,-10.7 -8.25,-29.56 -11.37,-41.42 -4.48,-16.92 -22.5,-62.6 -0.68,-71.99 29.3,-12.6 33.44,38.96 37.7,55.64 5.17,20.2 19.83,47.73 6.62,67l-2.07 3.02 -3.66 0.37zm1666.03 -823.69c9.87,-10.16 15.47,-10.71 26.65,-1.11l0.8 0.69 0.59 0.86c10.88,15.99 21.38,32.74 31,49.5 7.23,12.61 32.78,54.42 19.55,67.86 -14.69,14.91 -29.4,-1.43 -37.13,-14.18 -6.77,-11.17 -10.87,-23.31 -17.05,-34.12 -6.88,-12.04 -15.2,-23.25 -21.93,-35.33 -5.59,-10.01 -11.98,-24.36 -2.48,-34.17zm147.35 527.42c-4.28,-7.87 -7.57,-54.91 -8.3,-65.26 -0.82,-11.67 -5.41,-60.06 3.22,-68.32 10.66,-10.21 22.11,-7.1 28.36,5.63 5.08,10.34 7.19,25.74 8.42,37.16 2.51,23.17 2.64,46.35 2.68,69.62 0.03,21.6 -6.68,30.21 -29.18,25.11l-3.49 -0.8 -1.71 -3.14zm-53.29 -342.64c21.55,-10.73 29.51,4.7 35.29,22.08 6.85,20.58 37.24,93.32 20.24,109.91l-0.28 0.27 -0.3 0.24c-16.46,13.18 -28.24,-0.23 -33.78,-15.81 -4.57,-12.87 -5.92,-25.86 -9.57,-38.72 -5.45,-19.17 -21.94,-54.68 -15.57,-73.43l1.05 -3.08 2.92 -1.46zm-1712.69 -358.77c-0.73,-22.71 -2.27,-48.52 32.08,-40.45l5.86 1.38 1.47 38.82c16.99,0.07 42.74,-2.78 42.76,20.03 0.02,22.47 -25.48,20.59 -42.74,19.96l-2.61 41.04 -27.48 0.78 -2.42 -3.75c-8.66,-13.42 -7.27,-24.6 -6.97,-38.47l-38.73 -2.57 -1.43 -5.54c-8.87,-34.41 17.89,-31.77 40.21,-31.23zm939.91 1488.13c0.25,11.67 0.63,24.26 -3.39,34.76l-1.79 4.68 -29.29 2.22 -1.89 -5.98c-3.43,-10.87 -3.28,-23.72 -3.25,-35.66 -22.7,0.38 -49.07,3.26 -40.62,-31.76l1.37 -5.72 39.12 -2.17c-0.72,-17.49 -2.56,-42.83 19.92,-42.82 22.68,0 20.62,25.71 20.01,42.95l38.44 1.04 1.6 5.56c10.05,34.92 -17.47,33.2 -40.23,32.9zm-154.25 -261.9c-6.24,-40.26 17.07,-72.63 56.95,-78.67 36.55,-5.54 71.73,14.31 78.66,52.24 6.91,37.8 -16.39,75.12 -54.99,81.7 -36.64,6.24 -74.82,-17.78 -80.62,-55.27zm890.24 167.74c-0.02,9.06 0.2,18.1 0.43,27.18 0.2,7.71 0.59,16.42 -0.51,24.05 -2.69,18.56 -15.34,21.25 -31.77,17.67l-6.06 -1.32 -1.73 -67.08c-23.23,0.83 -70.43,6.89 -70.46,-20.32 -0.02,-26.94 46.48,-21.28 69.92,-20.34 -1.49,-23.71 -6.23,-71.48 21.05,-70.11 21.17,1.07 19.31,20.34 19.19,35.57 -0.1,11.66 -0.13,23.31 -0.08,34.97 19.75,-0.39 45.74,-1.7 62.26,2.64l5.48 1.44 2.22 32.2 -7.3 1.02c-22.9,3.2 -40.93,2.69 -62.64,2.43zm-71.63 -1539.54c92.05,-22.03 120.52,116.75 31.41,135.19 -39.76,8.23 -74.03,-13.43 -82.36,-52.85 -7.99,-37.78 12.54,-73.15 50.95,-82.34zm-1621.41 1457.77c-28.04,108.98 -194.53,69.57 -165.48,-42.69 11.89,-45.95 59.46,-72.13 105.07,-60.05 43.72,11.57 71.68,58.94 60.41,102.74zm720.17 -614.5c18.01,12.4 10.81,58.08 10.8,76.9 -0.08,164.86 1.3,329.77 1.48,494.65 0.11,92.61 0.13,185.27 -0.74,277.88 -0.28,30.81 -0.62,61.67 -1.52,92.47 -0.26,8.96 -0.29,34.77 -2.98,42.87 -10.56,31.83 -39.42,28.56 -66.94,28.55l-413.91 -0.16c-27.38,-0.01 -54.77,0.02 -82.16,0.02 -16.65,0 -37.5,0.93 -53.76,-2.12 -13.74,-2.58 -23.65,-8.55 -29.2,-21.73 -6.02,-14.29 -6.21,-36.28 -6.36,-51.63 -0.31,-32.25 0.6,-64.63 0.61,-96.91 0.01,-55.79 0.13,-111.58 0.06,-167.38 -0.12,-110.58 0,-221.16 0.03,-331.74 0.01,-57.67 -0.72,-115.4 -0.91,-173.09 -0.12,-33.93 -0.19,-67.89 0.08,-101.83 0.1,-11.76 0.22,-23.53 0.55,-35.29 0.15,-5.42 0.1,-13.26 1.16,-18.53l0.19 -0.99 0.44 -0.9c14.64,-30.31 43.56,-25.75 71.89,-25.76l493.04 -0.12c13.28,-0.01 26.57,-0.4 39.86,-0.13 16.52,0.35 28.62,0.78 38.29,14.97zm276.32 83.73c6.97,-34.88 28.92,-61.84 66.07,-67.31 25.25,-3.72 104.01,22.74 130.07,31.05 25.33,8.09 50.6,16.46 76.03,24.26 12.38,3.81 33.93,11.06 46.63,11.91 23.52,1.57 47.85,1.02 71.42,0.49 29.15,-0.65 58.28,-1.65 87.44,-2 45.28,-0.53 113.85,-0.94 156.14,15.24 64.77,24.77 110.74,76.85 128.05,144.01 17.9,69.45 -3.36,152.87 -59.16,199.58l-151.12 138.05 -0.2 0.16c-5.69,4.55 -22.15,16.26 -24.61,23.28 -2.46,7.01 -0.75,32.42 -0.75,40.52l0.08 261.73c0.01,27.43 0.77,54.78 0.99,82.18 0.09,11.6 0.61,31.58 -3.47,42.41 -4.63,12.26 -14.84,13.8 -26.03,9.32 -12.4,-4.95 -27.26,-15.49 -38.58,-22.81l-138.09 -89.29c-47.3,19.74 -162.19,117.77 -196.12,113.86l-4.23 -0.49 -1.93 -3.8c-11.54,-22.85 -5.83,-181.68 -5.2,-213.39 0.47,-23.98 5.08,-187.9 -3.31,-202.23 -5.91,-9.13 -12.83,-17.25 -18.83,-26.2 -8.79,-13.11 -15.06,-28.31 -20.67,-42.99 -11.55,-30.28 -17.12,-61.67 -16.67,-94.08 0.42,-30.87 6.52,-63.78 18.3,-92.32 6.43,-15.59 13.56,-30.08 23.12,-43.99 2.36,-3.44 4.73,-6.71 7.03,-10 -54.3,16.32 -147.12,58.45 -184.93,46.79 -74.63,-23 -77.18,-124.29 -1.16,-151.14l5.61 -2.53c-14.23,-28.55 -18.48,-55.45 1.2,-84.78 19.78,-29.48 44.81,-33.52 76.88,-35.49zm-681 -1151.19c5.07,-0.64 11.24,-0.56 16.37,-0.68 11.39,-0.24 22.78,-0.37 34.18,-0.48 37.92,-0.37 75.86,-0.49 113.78,-0.6 113.03,-0.32 226.07,-0.25 339.12,-0.14 186.55,0.17 373.12,0.9 559.67,0.93 47.26,0.01 85.12,16.37 101.12,63.09 2.57,7.49 2.97,25.02 3.35,33.12 1.01,21.71 1.45,43.52 1.81,65.25 1.08,63.23 1.2,126.54 1.21,189.78 0.02,106.44 -1.15,212.88 -1.14,319.31 0.01,115.45 -12.86,76.53 53.99,166.9 10.8,14.61 21.04,29.64 31.93,44.18 9.13,12.17 30.17,35.12 33.07,49.22 7.32,35.54 -19.51,44.84 -48.8,44.62 -456.55,-3.45 -913.11,0.42 -1369.66,-0.25 -22.16,-0.03 -55.41,5.86 -68.49,-17.34 -14.04,-24.88 4.72,-43.82 18.31,-62 21.69,-29 43.43,-57.94 64.64,-87.3 6.27,-8.67 30.53,-38 32.99,-47.61 1.43,-5.59 0.88,-13.63 0.65,-19.37 -0.63,-15.62 -1.18,-31.05 -1.17,-46.71l0.09 -456.51c0,-48.25 -6.81,-101.35 0.18,-148.81 7.3,-49.46 30.75,-81.95 82.8,-88.6zm543.33 1555.58c-41.28,19.9 -8.86,72.99 25.5,55.95 34.21,-16.97 12.21,-74.14 -25.5,-55.95zm808.21 -1253.97c13.52,-36.34 -45.76,-57.89 -57.79,-21.09 -14.01,42.85 45.21,54.92 57.79,21.09zm-1765.07 1317.98c-54.21,18.58 -28.17,105.3 29.84,84.77 23.2,-8.21 35.44,-33.25 28.06,-56.64 -7.79,-24.66 -33.85,-36.38 -57.9,-28.13zm213.73 -502.42l575.84 0.1c0.34,-4.18 0.55,-8.41 0.46,-12.51 -0.04,-1.79 -0.07,-7.85 -0.65,-9.8 -0.45,-0.45 -1.06,-0.93 -0.99,-0.96 -12.31,-4.95 -111.72,-3.65 -129.81,-3.55 -47.89,0.27 -95.91,1.73 -143.73,1.75 -49.11,0.02 -98.28,-0.82 -147.4,-1.14 -26.89,-0.17 -53.8,-0.27 -80.69,-0.06 -18.39,0.14 -37.37,0.18 -55.84,1.48 -2.86,0.12 -16.63,0.39 -18.72,1.96 -0.92,1.77 0.12,14.67 0.8,22.52l0.73 0.21zm576.49 315.36c-6.87,11.07 -17.26,19.46 -30.59,23.28 -14.78,4.25 -54.85,4.55 -69.79,0.76 -22.16,-5.62 -34.49,-23.37 -40.05,-44.35 -5.6,21.24 -18.42,39.11 -42.21,44.58 -37.16,8.53 -94.32,3.93 -104.77,-40.34 -0.52,39.82 -2.24,82.08 0.56,121.98 25.53,-6.21 40.5,-4.37 60.17,13.46 21.02,-16.89 51.45,-10.29 71.88,5.87l4.42 3.12c23.21,-14.02 46.52,-15.95 69.92,1.67 24.62,18.56 21.5,53.52 21.52,80.91 0.05,58.67 5.59,113.32 -19.8,168.32 -18.98,41.09 -55.45,76 -95.82,95.9 -49.99,24.66 -104.74,26.71 -156.63,6.35 -86.17,-33.82 -132.53,-126.94 -163.09,-208.66 -15.91,-42.55 -51.48,-107.79 -1.02,-141.09 23.96,-15.81 60.89,-10.1 77.44,13.64 5.99,8.6 10.49,18.71 14.77,29.01l0.45 -153.58c-15.62,-7.55 -28.04,-18.95 -32.45,-36.84 -0.27,-1.09 -0.52,-2.19 -0.77,-3.31 -5.58,22.58 -19.42,40.8 -48.35,44.64 -33.31,4.44 -77.11,1.91 -93.49,-28.06l-0.41 89.84 -0.22 423.16 577.88 0.27 0.45 -510.53zm0.09 -99.47l0.05 -52.07c-6.17,9.94 -15.51,17.67 -27.12,22.09 -5.16,1.97 -11.7,3.37 -18.63,4.3 4.46,0.67 8.74,1.55 12.73,2.58 15.79,4.08 26.21,11.24 32.97,23.1zm0.13 -150.5l0.03 -26.73 -49.78 -0.02c19.88,2.5 39.19,10.2 49.75,26.75zm-83.63 -26.77l-114.1 -0.05c25.48,3.75 49.12,15.86 56.17,39.71 0.51,1.73 0.99,3.51 1.43,5.34 5.47,-17.83 16.63,-32.67 35.49,-40.27 5.79,-2.33 13.21,-3.86 21.01,-4.73zm-150.23 -0.08l-260.46 -0.12c1.42,0.17 2.81,0.35 4.16,0.57 23.66,3.71 45.17,15.16 52.87,39.26 0.56,1.74 1.06,3.55 1.52,5.42 4.22,-20.54 16.98,-32.47 36.41,-40.21 15.69,-6.24 50.33,-5.88 67.06,-2.73 25.88,4.86 38.65,22.31 43.97,43.49 3.93,-21.5 16.86,-34.88 37.29,-41.7 5.22,-1.73 11.03,-3.08 17.18,-3.98zm-291.74 -0.14l-51.06 -0.02 -0.13 27.77c6.46,-11.21 16.76,-18.75 30.88,-23.51 6.05,-2.04 13.04,-3.43 20.31,-4.24zm-51.63 123.32l-0.27 60.02c7.05,-16.17 20.06,-28.19 43.25,-30.61 2.28,-0.23 4.61,-0.45 6.97,-0.64 -0.38,-0.06 -0.76,-0.11 -1.13,-0.16 -19.99,-3 -38.94,-11.36 -48.82,-28.61zm141.73 73.78c5.7,-21.03 18.41,-38.58 41.8,-43.35 3.92,-0.8 9.94,-1.37 16.85,-1.7 -4,-0.34 -7.92,-0.78 -11.72,-1.29 -28.43,-3.83 -41.96,-22.45 -47.3,-45.15 -5.24,19.88 -16.89,36.63 -38.03,43.26 -5.15,1.61 -11.1,2.76 -17.32,3.48 26.4,3.17 49.98,14.55 55.72,44.75zm147.41 0.94c5.27,-21.62 17.91,-39.63 43.22,-44.45 3.65,-0.7 7.45,-1.31 11.36,-1.79 -23.38,-3.56 -45.91,-14.31 -53.21,-38.57 -0.54,-1.77 -1,-4.09 -1.4,-6.82 -6.1,31.7 -31.41,43.18 -59.16,45.75 9.05,0.5 17.05,1.47 21.68,2.98 24.41,7.93 34.05,23.88 37.51,42.9zm147.19 -91.49c-5.64,19.72 -17.42,36.44 -37.75,42.62 -4.29,1.3 -9.17,2.26 -14.32,2.93 24.14,3.96 45.43,15.98 51.93,42.69 0.09,0.36 0.18,0.71 0.26,1.08 0.36,-1.55 0.76,-3.06 1.18,-4.53 6.75,-23.96 28.23,-35.59 52.09,-39.53 -21.41,-3.35 -41.65,-13.08 -50.12,-34.66 -1.28,-3.26 -2.37,-6.83 -3.27,-10.6zm51.61 87.42c-11.22,3.89 -11.7,5.28 -12.35,17.57 -0.4,7.63 -0.9,33.24 1.26,39.67 5.45,16.16 91.75,35.09 67.36,-48.19 -4.53,-15.46 -44.19,-13.23 -56.27,-9.05zm-160.35 -123.03c0.06,37.49 -0.44,40.67 37.95,40.67 13.22,0 29.17,1.46 32.15,-14.66 1.67,-9.05 2.07,-43.38 -3.24,-50.46 -6.21,-8.26 -37.17,-6.28 -46.76,-5.51 -21.21,1.69 -20.13,10.75 -20.1,29.96zm12.88 122.48c-18.32,4.84 -15.47,43.21 -11.66,57.09 2.41,8.76 7.96,11.23 16.69,11.97 7.05,0.6 34.18,0.89 40.24,-0.79 16.23,-4.47 38.4,-90.39 -45.27,-68.27zm144.25 -150.39c-8.99,5.29 -9.04,12 -9.2,21.82 -0.14,8.66 -1.25,29.11 1.45,36.75 3.32,9.39 10.63,9.45 19.71,9.93 8.74,0.45 31.95,1.27 39.53,-2.08 9.88,-5.16 26.98,-66.53 -12.56,-68.57 -8.3,-0.43 -32.06,-1.9 -38.93,2.15zm-405.27 -2.13c-9.63,-0.01 -28.09,-1.38 -36.88,1.8 -9.08,3.28 -10.06,13.86 -10.41,22.29 -0.41,10.04 -1.46,25.85 2.16,35.28 3.52,9.16 11.72,11.14 20.88,11.5 10.1,0.41 27.19,1.9 36.68,-1.41 9.38,-3.28 10.99,-12.18 11.36,-21.23 0.43,-10.28 2.06,-27.34 -1.27,-36.98 -3.43,-9.94 -13.05,-11.24 -22.52,-11.25zm101.09 56.38c2.76,20.37 41.99,16.14 55.54,13.88 20.33,-3.39 16.13,-39.46 14.22,-53.99 -2.94,-22.31 -41.45,-18.84 -56.58,-15.58 -19.54,4.21 -15.14,41.29 -13.18,55.69zm-147.63 151.88c1.78,10.25 7.42,12.28 17.16,13.24 8.86,0.87 30.54,1.36 38.88,-0.19 19.64,-3.66 16.34,-41.69 13.57,-55.8 -3.88,-19.8 -42.55,-16.6 -56.85,-13.41 -18.4,4.11 -15.15,42.45 -12.76,56.16zm148.81 -2.2c13.41,-26.92 38.72,-33.66 69.16,-26.96 0.04,-9.94 -0.84,-21.66 -8.33,-25.44 -6.87,-3.47 -40.03,-3.2 -48.23,-1.81 -16.58,2.81 -18.32,35.25 -12.6,54.21zm71.83 222.93c-6.95,-21.69 -4.46,-79.13 -3.99,-103.18 0.39,-19.92 0.96,-39.85 1.13,-59.77 0.09,-9.91 0.71,-26.03 -1.19,-35.6 -2.42,-12.26 -15.89,-18.74 -27.07,-12.09 -14.26,8.48 -8.02,98.91 -8.01,116.05 0.02,44.63 -0.06,89.26 0.02,133.9 0.02,11.21 1.49,21.92 0.11,33.22 -1.79,14.7 -9.82,26.88 -26.46,21.96 -30.25,-8.93 -45.32,-123.72 -75.32,-124.19 -17.14,-0.27 -18.11,11.12 -15.85,25.49 2.77,17.57 10.44,34.21 16.71,50.71 11.96,31.46 24.31,62.61 40.18,92.35 31.1,58.27 66.93,109.08 137.29,120.28 67.76,10.77 133.63,-21.86 165.71,-82.52 21.61,-40.84 20.81,-64.68 20.82,-109.9 0.01,-18.92 12.5,-101.69 -17.65,-101.58 -21.55,0.07 -14.91,21.43 -19.37,33.92 -5.56,15.56 -23.6,21.92 -34.41,6.97 -8.16,-11.28 -3.41,-22.32 -5.39,-33.98 -2.06,-12.06 -15.16,-18.23 -26.01,-11.96 -14.97,8.65 -3.5,30.8 -15.93,49.24l-2.31 3.43 -26.51 0.36 -1.56 -6.01c-3.96,-15.41 -0.1,-31.93 -3.86,-45.35 -2.64,-9.39 -11.39,-13.33 -20.63,-11.43 -13.73,2.83 -12.77,14.09 -13.01,25.62 -0.45,21.28 -6.86,33.67 -31.26,29.44l-4.72 -0.82 -1.46 -4.56zm-254.24 357c-0.2,18.76 -1.7,41.85 3.23,58.95l570.68 -1.25c4.79,-15.28 3.46,-40.44 3.09,-58.27l-577 0.57zm249.54 44.1c-11.29,-29.29 8.41,-32.02 31.38,-31.85 15.32,0.11 33.21,-1.06 48.06,2.66l4.45 1.13 1.23 4.43c7.88,28.31 -9.25,31.56 -32.25,31.27 -14.64,-0.18 -34.24,1.65 -48.01,-2.99l-3.52 -1.19 -1.34 -3.46zm672.83 -875.17l144.1 -0.17c-24.74,-7.58 -54.63,-14.83 -68.09,-18.88 -16.44,-4.95 -34.21,-13.54 -51.57,-7.98 -12.61,4.04 -21.58,14.55 -24.44,27.03zm-77.63 108.2c11.6,-2.61 24.15,-6.73 35.2,-10.08 22.05,-6.68 44,-13.65 65.94,-20.66 40.08,-12.8 80.1,-26.1 120.29,-38.54 -50.7,-0.32 -101.41,0.21 -152.12,0.21 -21.72,0 -59.87,-5.43 -74.21,14.71 -15.03,21.11 -9.34,36.96 4.9,54.36zm477.93 317.98c24.17,-0.74 61.1,-2.32 77.57,3.98l3.45 1.32 1.2 3.49c2.96,8.59 3.12,18.69 3.26,28.53 42.9,-34.68 81.76,-76.66 124.21,-111.96 54.89,-45.64 88.48,-96.94 75.7,-170.97 -10.7,-61.96 -53.79,-113.23 -113.77,-132.77 -30.36,-9.89 -86.3,-9.88 -118.64,-10.05 -43.34,-0.24 -86.59,1.45 -129.86,1.44 -75.34,-0.01 -137.14,28.25 -207.56,49.75 -65.76,20.08 -131.22,41.14 -196.86,61.62 -12.18,3.81 -34.69,7.93 -44.26,15.72 -11.52,9.39 -16.8,23.29 -14.64,37.98 2,13.61 10.55,24.49 23.16,29.89 16.58,7.1 32.18,-0.15 47.99,-5.32 32.81,-10.72 65.57,-21.57 98.27,-32.57 16.8,-5.65 33.98,-10.51 50.87,-15.88 13.39,-4.27 32.99,-10.09 45.05,-17 52.24,-29.96 90.88,-46.32 152.78,-44.76 14.8,0.38 29.24,1.32 29.22,20.45 0,14.53 -11.26,18.88 -23.76,20.02 -14.65,1.32 -29.37,0.61 -44.29,2.15 -55.57,5.72 -98.28,33.34 -135.17,74.47 -41.95,46.8 -57.66,112.94 -48,174.37 10.86,69.03 51.87,126.37 113.47,159.36 23.58,12.62 60.71,24.55 77.47,-4.7 6.53,-11.4 5.09,-31.51 -2.02,-42.32 -8.05,-12.24 -25.69,-16.39 -38.25,-22.82 -29.42,-15.05 -53.1,-42.89 -65.25,-73.41 -14.89,-37.38 -12.43,-77.02 5.76,-112.8 53.13,-104.48 208.1,-99.84 252.02,9.7 16.08,40.12 12.23,65.95 0.88,103.09zm-45.45 0.27c9.84,-6.43 13.76,-27.74 14.62,-37.84 1.72,-20.24 -1.79,-43.67 -11.95,-61.48 -37.15,-65.14 -131.95,-67.11 -170.88,-1.94 -24.39,40.84 -15.18,61.94 -0.72,101.23l168.93 0.03zm-124.62 39.92c17.06,8.18 34.71,12.27 49.29,35.66 19.2,30.83 14.9,73.75 -11.09,99.43 -29.16,28.83 -64.27,27.93 -99.47,12.15 -14.41,-6.47 -27.87,-14.88 -40.89,-23.75 -4.56,-3.11 -9.73,-6.96 -14.89,-10.5l0.05 322.64c8.45,-4.69 17.89,-11.03 23.96,-14.9 18.73,-11.98 37.22,-24.4 55.74,-36.71 12.47,-8.29 75.57,-52.3 88.44,-51.38 10.92,0.78 121.78,76.64 164.44,102.06l0.24 -435.06 -215.82 0.36zm-995.06 -872.91l1172.75 -0.04c-4.32,-51.37 -0.09,-105.94 -0.1,-157.4 -0.05,-163.82 6.3,-329.3 0.08,-492.88 -0.81,-21.18 -7.93,-35.62 -25.61,-47.63 -16.49,-11.21 -48.4,-7.69 -68.01,-7.7 -54.78,-0.04 -109.56,-0.07 -164.34,-0.08l-821.73 -0.23c-43.69,-0.02 -91.42,-3.25 -93.34,55.59 -3.58,109.44 -0.17,219.09 0.06,328.57 0.22,107.26 -0.16,214.53 0.24,321.8zm47.62 -674.35c6.48,-2.25 36.99,-2 44.53,-2.13 34.02,-0.6 68.07,-0.83 102.09,-1.02 103.53,-0.59 207.07,-0.59 310.6,-0.53 178.23,0.08 356.48,0.92 534.71,0.92 22.72,0 48.92,-2.14 71.22,0 16.89,1.62 29.89,6.86 36.78,23.29 7.45,17.77 6.94,48.88 6.87,68.01 -0.16,46.41 -1.5,92.78 -1.49,139.24l0.07 328.69c0,29.34 9.58,82.09 -23.94,96.9 -11.73,5.19 -119.71,4.97 -136.09,5.13 -92.95,0.89 -185.96,0.81 -278.92,0.63 -155.25,-0.29 -310.57,-1.94 -465.8,-1.96 -46.23,0 -92.44,1.42 -138.62,1.42 -19.1,0 -50.17,0.33 -67.68,-7.88 -16.57,-7.75 -21.16,-22.09 -22.59,-39.3 -2,-24.16 0.19,-51.71 0.19,-76.24 0.01,-36.53 0.06,-73.05 0.08,-109.57l0.13 -328.69c0.01,-31.22 -10.05,-83.75 27.86,-96.91zm1058.32 616.83c1.29,-0.13 2.89,-0.22 4.22,-0.42 0.23,-0.23 0.46,-0.47 0.69,-0.71 1.13,-7.66 0.92,-20.62 1.12,-27.77 0.61,-22.29 0.92,-44.6 1.2,-66.89 0.81,-64.84 1.1,-129.7 1.16,-194.54 0.07,-65 -0.07,-130.04 -0.89,-195.04 -0.29,-22.49 -0.63,-45.01 -1.36,-67.49 -0.19,-5.77 -0.19,-17.8 -1.08,-25.56 -3.37,-0.24 -7.19,-0.28 -9.76,-0.38 -11.2,-0.44 -22.43,-0.66 -33.63,-0.85 -37.27,-0.66 -74.56,-0.87 -111.83,-1.05 -110.62,-0.54 -221.27,-0.39 -331.9,-0.21 -114.79,0.18 -229.57,0.52 -344.35,0.79 -66.16,0.15 -132.71,0.91 -198.84,-0.02 -2.56,-0.03 -18.37,-0.8 -20.17,0.46 -3.13,3.41 -1.37,59.96 -1.37,65.85l0.17 413.9c0.02,17.35 -0.66,34.75 -0.73,52.12 -0.03,9.62 -0.5,36.46 2.28,45.48 0.6,0.84 1.12,1.72 1.68,2.54 3.82,0.68 15.07,0.24 18.03,0.18 168.44,-3 337.03,-0.31 505.5,-0.33l519.86 -0.06zm-566.52 -391.09c21.94,1 42.9,6.73 36.53,35.1 -3.09,13.8 -11.04,29.76 -17.2,42.5 -10.89,22.5 -22.22,44.76 -32.97,67.33 -8.28,17.38 -14.44,39.06 -35.19,44.62 -10.86,2.91 -25.26,2.63 -36.46,2.54 -22.99,-0.18 -45.93,-0.77 -68.93,-0.8 -25.6,-0.04 -51.43,1.3 -76.93,0.9 -13.55,-0.21 -29.62,-0.94 -40.6,-9.91 -10.93,-8.94 -15.32,-24.94 -18.64,-38.07 -6.37,-25.25 -11.31,-51.01 -17.58,-76.38 -6,-24.28 -20.29,-57.86 11.37,-65.94 -4.09,-20.94 5.53,-22.98 26.06,-31.98 13.36,-5.86 26.55,-12.05 39.86,-17.99 20.12,-8.99 69.26,-35.07 89.55,-33.26l3.58 0.32 2.11 2.91c6.09,8.37 8.17,13.62 12.14,22.63 1.29,2.9 5.03,3.45 7.79,4.26 14.36,4.17 29.72,6.49 44.36,9.71 14.93,3.29 29.75,7.04 44.71,10.15 28.6,5.94 28.5,10.94 26.44,31.36zm-282.14 198.07c10.05,1.38 24.31,1.23 33.38,1.42 22.31,0.46 44.66,0.49 66.97,0.44 40.65,-0.09 81.28,-0.64 121.93,-1.09 13.5,-0.15 31.67,-3 38.31,12.35 3.76,8.69 1.88,16.7 -5.76,22.21 -2.11,1.54 -4.69,2.67 -7.05,3.8 15.27,74.65 -102.58,85.9 -93.73,1.73l-80.71 -0.31c1.05,15.31 -1.47,31.25 -11.13,43.53 -8.95,11.39 -22.68,17.41 -37.12,16.55 -34.72,-2.07 -48.97,-34.57 -44.02,-65.17 -7.79,-5.64 -12.6,-6.44 -18.04,-18.98 -4.03,-9.27 -6.11,-22.57 -8.52,-32.63 -8.09,-33.74 -15.99,-67.51 -24.27,-101.21 -4.47,-18.21 -9.01,-36.44 -13.85,-54.56 -2.23,-8.35 -4.67,-18.43 -7.69,-27.09 -18.42,0.68 -42.58,2.83 -57.9,-4.84l-4.06 -2.03 -1.65 -25.76 4.88 -2.28c20.65,-9.7 78.35,-11.15 91.95,10.64 4.82,7.72 9.89,30.52 12.15,39.7 5.71,23.12 10.94,46.39 16.29,69.6 5.56,24.16 11.14,48.37 17.32,72.39 3.08,11.97 7.18,29.38 12.32,41.59zm794.61 -81.75l0.39 31.03 -6.77 1.05c-20.5,3.2 -45.5,3.22 -66.32,3.66 -34.56,0.74 -69.17,0.8 -103.74,0.74 -62.99,-0.12 -125.98,-1.16 -188.95,-1.27 -16.65,-0.03 -40.89,2.51 -55.62,-5.2l-3.96 -2.08 -1.55 -26.24 4.84 -2.28c22.13,-10.42 197.61,-4.77 235.84,-4.88 31.17,-0.08 62.37,-1.12 93.58,-1.22 19.53,-0.06 69.52,-1.11 86.99,4.89l5.27 1.8zm-7.36 113.95c-22.15,3.01 -47.69,3.09 -70.09,3.53 -35.85,0.71 -71.74,0.78 -107.6,0.73 -65.18,-0.1 -130.37,-1.1 -195.55,-1.14 -14.49,0 -27.01,2.31 -40.27,-5.26l-3.57 -2.04 -2.49 -26.46 5.31 -2.26c9.88,-4.22 52.46,-4.47 64.07,-4.73 39.82,-0.9 79.73,-0.95 119.56,-0.91 68.11,0.08 136.26,1.24 204.34,1.21 24.51,-0.01 38.68,0.99 32.99,30.97l-1.06 5.59 -5.64 0.77zm-84.11 -160.83c-59.09,-0.01 -118.21,1.05 -177.32,1.08 -20.33,0.02 -138.11,1.21 -152.25,-5.72l-4.26 -2.1 -0.85 -26.2 4.5 -2.27c14.41,-7.28 184.59,-6.54 208.46,-6.54 45.55,-0.02 91.15,0.24 136.69,1.15 11.98,0.24 60.98,0.17 71.02,3.76l4.27 1.53 0.83 4.45c3.89,20.58 -8.57,29.35 -27.34,31.35 -19.82,2.11 -43.45,-0.48 -63.75,-0.49zm-333.92 -88.39l-0.31 -26.48 4.24 -2.26c14.26,-7.61 185.29,-6.53 209.14,-6.49 45.47,0.09 90.99,0.45 136.45,1.43 11.01,0.24 61.09,0.33 70.08,3.72l4.02 1.52 0.91 4.19c4.12,18.83 -2.79,29.33 -22.03,31.51 -9.08,1.02 -19.07,0.57 -28.21,0.27 -13.47,-0.44 -26.89,-0.92 -40.37,-0.92 -36.53,-0.01 -73.05,0.01 -109.57,-0.04 -36.73,-0.05 -197.73,5.82 -219.8,-4.36l-4.55 -2.09zm425.64 304.74l-0.64 25.21 -6.63 0.93c-22.7,3.21 -49.44,3.22 -72.43,3.68 -37.28,0.73 -74.6,0.81 -111.89,0.75 -65.11,-0.1 -130.24,-1.16 -195.35,-1.18 -13.39,0 -21.55,1.78 -33.95,-4.93l-3.12 -1.69 -0.81 -3.45c-2.69,-11.39 -2.8,-24.53 10.35,-28.87 7.7,-2.53 19.3,-1.01 27.54,-1.01l337.82 -0.05c17.99,-0.01 30.71,-4.02 46.03,8.15l3.08 2.46zm-606.75 -286.26l22.4 -0.41c-0.24,-0.06 -0.46,-0.11 -0.69,-0.17 -8.09,-1.94 -16.26,-3.57 -24.39,-5.33l2.68 5.91zm-144.33 -0.89l98.59 1.18 -17.37 -36.31 -76.51 33.26c-1.22,0.53 -2.87,1.17 -4.71,1.87zm-7.6 151c7.48,1.32 22.33,1.33 28.97,1.55 19.71,0.67 39.47,0.98 59.2,1.18 19.98,0.21 39.97,0.28 59.94,0.07 9.94,-0.11 23.81,0.28 33.52,-1.14 8.66,-1.27 11.31,-15.46 14.44,-22.58 7.75,-17.67 16.42,-35.07 24.69,-52.52 5.38,-11.37 11.66,-24.1 16.47,-36.43l-265.03 -0.07c3.55,18.87 9.01,37.43 13.51,56.06 2.4,9.99 8.06,44.33 14.29,53.88zm-16.62 92.86l0.17 11.93c6.17,3.73 6.96,4.23 13.57,1.47 1.34,-5.85 1.31,-9.02 0.16,-14.81 -6.64,-2.59 -7.65,-2.75 -13.9,1.41zm173.89 0.4c-1.75,13.72 0.94,17.85 13.72,13 1.62,-6.07 1.69,-8.82 0.02,-15 -7.04,-3.3 -7.09,-2.81 -13.74,2zm-565.5 394.83c5.95,0.33 12.63,0.36 16.34,0.47 19.44,0.61 38.94,0.84 58.39,1.02 56.99,0.54 114.01,0.45 171,0.29 93.9,-0.25 187.85,-1.38 281.74,-1.46l13.37 -39.36c1.08,-2.89 2.85,-9.7 4.5,-11.87 2.15,-2.83 5.47,-3.32 8.47,-5.04 17.15,-9.87 228.58,-4.67 265.73,-4.69 13.68,-0.01 31.09,-1.72 39.22,11.82 3.37,5.6 5.47,13.45 7.38,19.71 2.99,9.79 6.12,19.38 9.66,28.94 59.61,2.49 120.55,1.71 180.17,1.42 63.2,-0.32 126.44,-1.18 189.65,-1.2l157.37 -0.04c-5.04,-8.21 -17.99,-23.91 -21.11,-28.18 -11.09,-15.17 -22.07,-30.42 -33.56,-45.4l-49.55 -67.3c-12.23,-6.33 -91.19,-2.32 -107.93,-2.33l-1086.23 -0.25c-18.14,26.14 -38.84,52.06 -57.78,77.65 -6.99,9.46 -35.8,47.35 -46.83,65.8zm108.06 -124.65l1186.87 -0.53 1.25 0.42c18.9,6.44 18.74,30.35 0.58,37.62 -7.77,3.1 -83.19,2.35 -94.16,2.4 -65.13,0.32 -130.28,0.2 -195.42,0.05 -108.19,-0.25 -216.41,-1.15 -324.6,-1.19l-459.56 -0.13c-19.18,0 -106.58,2.84 -117.68,-2.69 -15.32,-7.62 -13.92,-27.62 1.05,-35.11l1.67 -0.84zm469.75 104.57l-6.92 20.51 262.41 -0.22c-1.61,-6.92 -4.18,-14.86 -7.37,-19.37 -8.89,-1.81 -32.02,-1.78 -39.77,-1.96 -26.87,-0.6 -53.78,-0.67 -80.66,-0.62 -27.66,0.05 -55.35,0.27 -83.02,0.69 -14.73,0.22 -29.87,0.27 -44.67,0.97z"/>
 </g>
</svg>
