<?xml version="1.0" encoding="UTF-8"?>
<!DOCTYPE svg PUBLIC "-//W3C//DTD SVG 1.1//EN" "http://www.w3.org/Graphics/SVG/1.1/DTD/svg11.dtd">
<!-- Creator: CorelDRAW -->
<svg xmlns="http://www.w3.org/2000/svg" xml:space="preserve" width="33.8666mm" height="33.8666mm" version="1.1" style="shape-rendering:geometricPrecision; text-rendering:geometricPrecision; image-rendering:optimizeQuality; fill-rule:evenodd; clip-rule:evenodd"
viewBox="0 0 3386.66 3386.66"
 xmlns:xlink="http://www.w3.org/1999/xlink"
 xmlns:xodm="http://www.corel.com/coreldraw/odm/2003">
 <defs>
  <style type="text/css">
   <![CDATA[
    .fil0 {fill:black}
   ]]>
  </style>
 </defs>
 <g id="Layer_x0020_1">
  <metadata id="CorelCorpID_0Corel-Layer"/>
  <g id="_2300542431200">
   <path class="fil0" d="M793.29 1460.49c0,123.66 9,497.28 -19.53,594.72 -16.31,55.74 -25.6,46.99 -57.21,82.87l-68.73 76.74 386.46 28.42c55.47,7.42 128.62,11.81 190.01,14.73 60.08,2.86 133.14,15.31 193.99,16.14l384.85 30.03c23.48,3.48 74.13,7.19 94.67,7.72 17.54,0.45 36.2,1.48 55.4,2.87l-0.05 -70.91 0.19 -0.23 0.02 -165.41 -0.19 0 0.8 -428.27c-3.84,-43.64 -2.5,-94.29 -1.98,-137.99 0.42,-36.49 -0.25,-115.98 12.07,-148.89 19,-50.76 38.83,-69.92 77.74,-103.96l0.41 -0.37 143.91 -122.16c12.22,-10.58 24.3,-21.27 36.69,-31.64 11.54,-9.66 22.56,-19.9 34.09,-29.6 23.36,-87.13 67.08,-68.5 42.69,-80.95 -1.9,-0.97 -1322.05,-29.55 -1441.64,-29.55 -55.79,83.31 -54.35,131.23 -66.96,218.6 -5.79,40.01 -7.05,93.47 -0.81,134.73 6.65,43.96 3.11,95.69 3.11,142.36z"/>
   <path class="fil0" d="M276.04 1067.17c0,60.95 36.42,59.27 86.21,59.27l0 21.55 339.45 0 0 813.59c0,16.19 -22.45,28.78 -33.02,37.03l-95.89 76.53c-18.85,15.65 -16.57,-2.91 -16.57,58.86 109.85,0 31.53,56.12 173.44,-52.86 26.13,-20.08 21.08,-23.14 20.62,-65.59 -0.86,-78.91 -4.46,-911 3.8,-944.49 12.38,-50.17 24.48,-31.97 33.83,-57.77l-355.61 0c6.31,-27.1 56.94,-95.06 64.65,-123.93l183.37 -0.17c27.13,0.81 29.83,5.42 58.88,5.78 41.09,0.5 82.96,-0.13 124.15,-0.23 49.08,-0.11 75.8,5.6 123.9,5.42 159.49,-0.59 338.75,10.76 495.71,10.76 166.27,-0.01 328.34,10.87 495.7,10.77 47,-0.03 77.32,5.68 118.41,5.51 43.15,-0.17 86.33,0.06 129.47,-0.15 45.54,-0.24 70.86,5.53 118.5,5.43 43.1,-0.1 86.22,-0.01 129.32,-0.01l-1.97 4.94 16.86 0 31.39 17.57 2.3 1.52c38.83,25.7 57.05,70.72 48.84,116.41 -7.49,41.7 -31.61,60.05 -60.64,84.86 -27.96,23.91 -56.19,47.54 -83.75,71.91 -14.5,12.83 -29.44,25.44 -44.41,37.99l118.53 4.03c30.64,0.36 37.14,5.6 69.83,5.6l0 80.63 96.99 0.15 0 -75.39c99.19,0 252.94,27.82 317.04,-6.25 46.87,-24.91 49.35,-85.34 49.35,-160.78l0 -204.74c0,-61.97 -50.13,-88.59 -103.65,-95.72 -55.07,-7.33 -139.17,0.67 -198.26,-1.09l-193.8 -5.56c-40.41,0.09 -63.3,-5.2 -96.77,-5.61l-393.72 -4.99c-35.78,-0.05 -55.83,-5.74 -96.78,-5.59l-397.26 -6.84c-54.31,-7.44 -132.03,-4.21 -195.51,-3.84 -39.07,0.22 -53.83,-5.74 -91.4,-5.59 -199.39,0.82 -394.62,-11.37 -592.83,-10.63 -40.94,0.15 -61.01,-5.54 -96.78,-5.59 -83.58,-0.12 -170.87,-1.82 -215.87,86.23 -31.28,61.21 -86.05,153.21 -86.05,221.07z"/>
   <path class="fil0" d="M2795.06 1793.97c20.97,-5.72 67.28,-34.85 87.37,-45.95 39.38,-21.76 82.78,-50.23 121.23,-74.97 26.65,-17.15 60.18,-48.49 84.35,-34.71 12.67,7.22 23.21,20.42 22.31,41.2 -0.91,21.17 -16.08,29.73 -28.76,37.83 -83.89,53.59 -195.11,129.04 -286.48,165.59l-0.45 121.51 -767.32 -0.26 0.58 -306.05 766.92 2.46 0.25 93.35zm-726.8 782.49c-0.78,-1.47 -1.23,0.12 -2.71,-6.37l-0.63 -15.53c0.04,-7.78 0.12,-14.63 -0.57,-22.4 -7.43,-1.61 -11.52,-1.3 -19.17,-1.18 -1.74,0.03 -9.18,0.27 -10.38,0.11 -8.83,-1.2 -4.17,2.03 -7.33,-3.48l0.92 -54.4 766.45 0.6 -0.75 55.78 -50.54 0.61c-0.8,22 2.48,47.93 -6.94,65.56 -11.7,21.88 -20.79,18.79 -38.51,31.05l-23.93 0c-21.1,-13.31 -26.8,-7.38 -39.72,-31.9 -11.11,-21.09 -4.84,-40.43 -7.49,-64.52 -21.71,-2.95 -436.17,-1.54 -439.31,-0.54 -8.81,2.81 -5.08,20.3 -5.21,32.53 -0.52,50.48 -27.38,52.38 -44.66,64.43l-26.92 0c-12.69,-9.21 -39.37,-15.1 -42.6,-50.35zm-41.09 -307.25c3.68,-4.72 -7.37,-4.87 23.19,-4.48 115.68,1.49 721.41,-4.26 745.34,1.62l-0.73 153.08c-17.88,3.86 -353.3,1.38 -380.75,1.38 -126.44,0 -252.9,-0.15 -379.34,0.01 -13.74,-0.51 -3.73,0.64 -7.61,-4.39l-0.1 -147.22zm227.07 -210.99c62.94,0 506.85,-2.64 538.66,1.31 10.62,1.32 8.35,0.78 18.87,-5.32 25.42,-14.72 49.33,-27.35 73.11,-40.6 47.45,-26.46 95.46,-58.64 139.8,-87.2 22.75,-14.66 49.91,-41.29 75.39,-11.31 8.21,9.67 14.14,26.46 8.04,43.23 -4.97,13.67 -17.04,19.71 -29.1,27.48 -64.43,41.52 -142.18,94 -211.26,129.29 -16.69,8.52 -61.28,28.26 -72.91,37.95l-0.71 59.07 -766.79 -0.47 0.02 -152.89c68.73,-5.11 156.1,-0.54 226.88,-0.54zm406.9 -533.29c8.37,-36.28 -45.84,-45.02 -51.66,-12.79 -7,38.88 44.69,43.03 51.66,12.79zm39.7 5.8c4.39,9.21 20.84,18.87 35.95,12.2 11.56,-5.1 20.12,-20.19 12.8,-36.13 -14.33,-31.18 -63.94,-7.91 -48.75,23.93zm-248.34 -519.32l17.45 0 12.14 6.79c13.6,9.01 20.02,24.08 16.86,41.63 -3.29,18.29 -25.36,32.69 -35.89,41.7 -27.01,23.08 -58.44,49.5 -84.69,72.72 -14.61,12.93 -160.56,134.67 -167.64,145.83l74.8 0.23 0.08 111.14 509.04 0.85 0.29 212.47 -767.05 0.92c-3.38,-36.2 -3.54,-232.63 5.48,-256.72 14.66,-39.19 29.03,-49.6 57.16,-74.21l143.76 -122.04c12.38,-10.73 22.7,-19.94 36,-31.06 12.41,-10.38 23.17,-20.54 35.93,-31.14l107.18 -91.55c6.34,-5.24 11.37,-10.29 18.09,-15.48 9.05,-7.01 11.76,-6.83 21.01,-12.08z"/>
  </g>
 </g>
</svg>
