<?xml version="1.0" encoding="UTF-8"?>
<!DOCTYPE svg PUBLIC "-//W3C//DTD SVG 1.1//EN" "http://www.w3.org/Graphics/SVG/1.1/DTD/svg11.dtd">
<!-- Creator: CorelDRAW -->
<svg xmlns="http://www.w3.org/2000/svg" xml:space="preserve" width="9.6518mm" height="9.6518mm" version="1.1" style="shape-rendering:geometricPrecision; text-rendering:geometricPrecision; image-rendering:optimizeQuality; fill-rule:evenodd; clip-rule:evenodd"
viewBox="0 0 965.18 965.18"
 xmlns:xlink="http://www.w3.org/1999/xlink"
 xmlns:xodm="http://www.corel.com/coreldraw/odm/2003">
 <defs>
  <style type="text/css">
   <![CDATA[
    .fil0 {fill:none}
    .fil1 {fill:#FEFEFE}
   ]]>
  </style>
 </defs>
 <g id="Layer_x0020_1">
  <metadata id="CorelCorpID_0Corel-Layer"/>
  <path class="fil0" d="M482.58 0.53c266.53,0 482.6,216.07 482.6,482.6 0,266.53 -216.07,482.6 -482.6,482.6 -266.53,0 -482.6,-216.07 -482.6,-482.6 0,-266.53 216.07,-482.6 482.6,-482.6zm0 33.87c247.82,0 448.73,200.91 448.73,448.73 0,247.82 -200.91,448.73 -448.73,448.73 -247.82,0 -448.73,-200.91 -448.73,-448.73 0,-247.82 200.91,-448.73 448.73,-448.73z"/>
  <path class="fil1" d="M639.71 403.01c12.86,3.99 26.46,11.57 40,16.6 14.13,5.25 29.05,9.11 44.76,11.94 54.78,9.89 74.65,10.88 74.44,-29.68 -0.73,-139.9 9.25,-114.26 -45.6,-123.84 -42.47,-7.41 -78.78,-34.53 -97.81,-72 -46.92,-92.35 43.6,-84.96 -141.54,-85 -39.02,-0.01 -30.24,20.86 -30.24,83.83l0 339.57c0,33.57 5.18,74.8 -9.98,102.26 -30.4,55.09 -110.24,58.27 -141.94,0.73 -16.01,-29.08 -12.24,-63.71 5.68,-87.14 29.51,-38.59 62.85,-28.31 76.73,-36.53 13.97,-8.27 9.69,-29.97 9.68,-44.97 -0.01,-18.86 -0.01,-37.73 0,-56.59 0,-17.26 3.33,-39.03 -9.68,-47.29 -25.67,-16.3 -106.77,14.83 -134.15,30.59 -138.46,79.69 -162.46,299.35 -7.45,400.8 11.49,7.52 22.91,13.94 36.8,19.79 74.34,31.34 157.35,24.35 223.93,-20.12 60.46,-40.38 99,-102.93 105.54,-177.36 2.65,-30.21 1.21,-185.2 0.83,-225.59zm-258.22 84.02l-0.05 -72.1c-103.25,11.04 -193.15,108.72 -170.27,228.82 32.67,171.44 257.33,220.93 356.67,67.64 33.6,-51.86 29.45,-103.33 29.45,-171.49 0,-33.2 0,-66.4 0,-99.6 0,-54.97 -12.41,-123.89 44.2,-86.65 10.55,6.94 21.41,12.68 33.63,18.42 23.11,10.85 53.1,18.7 81.36,20.72l0.01 -70.21c-18.08,-8.31 -57.73,-4.57 -106.02,-52.64 -12.39,-12.32 -24.12,-27.71 -33.46,-45.79 -4.77,-9.24 -8,-17 -11.27,-27.27 -3.22,-10.16 -4.48,-23.81 -7.92,-32.52l-71.77 -0.7c2.25,142.09 0.03,291.7 0.11,435.1 0.08,149.84 -179.52,175.23 -234.37,63.79 -40.07,-81.4 18.12,-165.18 89.7,-175.52z"/>
 </g>
</svg>
