<?xml version="1.0" encoding="UTF-8"?>
<!DOCTYPE svg PUBLIC "-//W3C//DTD SVG 1.1//EN" "http://www.w3.org/Graphics/SVG/1.1/DTD/svg11.dtd">
<!-- Creator: CorelDRAW -->
<svg xmlns="http://www.w3.org/2000/svg" xml:space="preserve" width="5.4186mm" height="5.4186mm" version="1.1" style="shape-rendering:geometricPrecision; text-rendering:geometricPrecision; image-rendering:optimizeQuality; fill-rule:evenodd; clip-rule:evenodd"
viewBox="0 0 541.86 541.86"
 xmlns:xlink="http://www.w3.org/1999/xlink"
 xmlns:xodm="http://www.corel.com/coreldraw/odm/2003">
 <defs>
  <style type="text/css">
   <![CDATA[
    .fil0 {fill:none}
    .fil1 {fill:#F6F6F7}
   ]]>
  </style>
 </defs>
 <g id="Layer_x0020_1">
  <metadata id="CorelCorpID_0Corel-Layer"/>
  <rect class="fil0" x="-0.01" y="-0.01" width="540.87" height="539.54"/>
  <g id="_2943071628272">
   <path class="fil1" d="M144.77 504.73c24.09,6.67 53.21,3.57 79.12,3.57 22.98,0.01 150.5,1.56 162.33,-1.01 25.52,-5.54 25.78,-27.44 28.06,-53.71 8.61,-99.44 17.46,-201.69 28.03,-299.38l-344.73 -0.07c3.84,15.51 14.74,153.12 17.66,182.39l12.53 135.85c2.4,26.43 12.98,25.19 17,32.36zm28 -280.65c-10.6,3.25 -8.05,12.93 -7.14,24.61 1.84,23.8 11.2,177.02 13.54,183.26 2.75,7.32 14.93,9.5 24.16,6.22 9.78,-3.48 7.39,-13.59 6.6,-24.13l-10.62 -152.35c-1.48,-20.61 2.13,-46.42 -26.54,-37.61zm178.07 0.16c-9.3,3.5 -8.04,11.92 -8.78,23.01l-6.4 91.87c-0.61,9.85 -7.29,86.72 -5.41,92.46 2.58,7.82 15.11,9.61 24.17,6.76 12.34,-3.89 9.76,-38.61 10.66,-52.88 1.13,-17.89 11.99,-146.84 9.76,-154.49 -2.33,-7.99 -15.36,-9.98 -24,-6.73zm-89.3 0.21c-13.24,6.24 -7.76,38.45 -7.76,53.98 0,17.61 -2.03,147.76 1.8,154.76 3.67,6.72 16.36,7.85 23.92,4.96 8.62,-3.28 7.13,-13.51 7.09,-22.58l-0.03 -93.91c-0.01,-10.31 1.77,-85.99 -1.69,-92.19 -3.16,-5.66 -15.32,-8.79 -23.33,-5.02z"/>
   <path class="fil1" d="M96.89 145.94l362.51 -0.05c1.07,-14.39 0.73,-23.8 -2.8,-36.21 -12.89,-13.81 -12.8,-15.48 -39.96,-15.41 -18.44,0.04 -36.85,-0.07 -55.28,-0.02l-221.14 0.02c-49.27,0 -60.11,-1.06 -59.25,51.12l15.92 0.55z"/>
   <path class="fil1" d="M195.22 85.86l22.11 -0.17c3.24,-36.35 12.47,-34.96 52.88,-34.96 39.29,0 49.5,-1.92 52.85,34.85l22.1 0.22c3.42,-22.34 -6.9,-37.92 -18.7,-45.34 -18.88,-11.87 -32.07,-9.84 -56.25,-9.82 -23.65,0.02 -36.78,-2.13 -55.38,9.2 -12.3,7.5 -23.12,23.07 -19.61,46.02z"/>
  </g>
 </g>
</svg>
