<?xml version="1.0" encoding="UTF-8"?>
<!DOCTYPE svg PUBLIC "-//W3C//DTD SVG 1.1//EN" "http://www.w3.org/Graphics/SVG/1.1/DTD/svg11.dtd">
<!-- Creator: CorelDRAW -->
<svg xmlns="http://www.w3.org/2000/svg" xml:space="preserve" width="9.6518mm" height="9.6518mm" version="1.1" style="shape-rendering:geometricPrecision; text-rendering:geometricPrecision; image-rendering:optimizeQuality; fill-rule:evenodd; clip-rule:evenodd"
viewBox="0 0 965.18 965.18"
 xmlns:xlink="http://www.w3.org/1999/xlink"
 xmlns:xodm="http://www.corel.com/coreldraw/odm/2003">
 <defs>
  <style type="text/css">
   <![CDATA[
    .fil0 {fill:white}
   ]]>
  </style>
 </defs>
 <g id="Layer_x0020_1">
  <metadata id="CorelCorpID_0Corel-Layer"/>
  <g id="_2058671276816">
   <path class="fil0" d="M482.59 42.31c243.46,0 440.81,197.36 440.81,440.81 0,243.46 -197.35,440.82 -440.81,440.82 -89.76,0 -173.24,-26.83 -242.89,-72.9l-188.35 31.02 49.86 -177.73c-37.78,-65.02 -59.43,-140.59 -59.43,-221.21 0,-243.45 197.36,-440.81 440.81,-440.81zm0 53.93c213.67,0 386.88,173.22 386.88,386.88 0,213.67 -173.21,386.89 -386.88,386.89 -78.77,0 -152.05,-23.54 -213.17,-63.98l-165.31 27.23 43.76 -156c-33.16,-57.06 -52.16,-123.38 -52.16,-194.14 0,-213.66 173.22,-386.88 386.88,-386.88z"/>
   <path class="fil0" d="M482.59 170.64c172.59,0 312.49,139.9 312.49,312.48 0,172.59 -139.9,312.5 -312.49,312.5 -64.58,0 -119.3,-14.32 -169.12,-47.88l-127.69 18.3 21.7 -134.58c-23.84,-44.14 -37.38,-94.65 -37.38,-148.34 0,-172.58 139.91,-312.48 312.49,-312.48zm-66.83 206.19c11,-4.53 20.2,-8.26 31.52,-14.44l-31.04 -122.68 -36.45 -3.58 -0.25 -0.99c-22.55,9.82 -50.21,39.47 -64.5,57.95 -18,23.27 -13.25,73.45 -7.91,105.61 19.19,115.56 90.34,231.88 182.74,292.66 20.57,13.52 48.56,36.86 80.24,39.6 24.78,2.14 79.21,-18.61 92.78,-30.23l14.51 -34.32c-15.68,-9.2 -73.08,-61.1 -92.17,-77.93l-28.87 15.76 -14.22 28.13c-21.04,-0.36 -37.4,-36.5 -53.05,-62.54 -15.66,-26.05 -27.92,-47.31 -43.94,-71.39 -11.15,-16.76 -56.68,-89.86 -63.38,-108.42l34.08 -12.86 -0.09 -0.33z"/>
  </g>
 </g>
</svg>
