<?xml version="1.0" encoding="UTF-8"?>
<!DOCTYPE svg PUBLIC "-//W3C//DTD SVG 1.1//EN" "http://www.w3.org/Graphics/SVG/1.1/DTD/svg11.dtd">
<!-- Creator: CorelDRAW -->
<svg xmlns="http://www.w3.org/2000/svg" xml:space="preserve" width="9.6518mm" height="9.6518mm" version="1.1" style="shape-rendering:geometricPrecision; text-rendering:geometricPrecision; image-rendering:optimizeQuality; fill-rule:evenodd; clip-rule:evenodd"
viewBox="0 0 965.18 965.18"
 xmlns:xlink="http://www.w3.org/1999/xlink"
 xmlns:xodm="http://www.corel.com/coreldraw/odm/2003">
 <defs>
  <style type="text/css">
   <![CDATA[
    .fil0 {fill:lime}
    .fil1 {fill:#E4EBF3}
   ]]>
  </style>
 </defs>
 <g id="Layer_x0020_1">
  <metadata id="CorelCorpID_0Corel-Layer"/>
  <g id="_2058632373632">
   <g>
    <path class="fil0" d="M482.59 186.8c163.66,0 296.33,132.67 296.33,296.33 0,163.66 -132.67,296.33 -296.33,296.33 -60.34,0 -116.46,-18.04 -163.28,-49l-126.62 20.85 33.52 -119.48c-25.4,-43.71 -39.95,-94.51 -39.95,-148.7 0,-163.66 132.67,-296.33 296.33,-296.33zm0 36.25c143.64,0 260.08,116.44 260.08,260.08 0,143.63 -116.44,260.07 -260.08,260.07 -52.95,0 -102.21,-15.82 -143.3,-43l-111.13 18.3 29.42 -104.87c-22.29,-38.35 -35.06,-82.94 -35.06,-130.5 0,-143.64 116.44,-260.08 260.07,-260.08z"/>
    <path class="fil0" d="M482.59 273.06c116.02,0 210.07,94.05 210.07,210.07 0,116.02 -94.05,210.07 -210.07,210.07 -43.41,0 -80.2,-9.63 -113.69,-32.19l-85.84 12.3 14.59 -90.47c-16.03,-29.67 -25.13,-63.63 -25.13,-99.71 0,-116.02 94.05,-210.07 210.07,-210.07zm-44.92 138.61c7.39,-3.05 13.57,-5.55 21.19,-9.71l-20.87 -82.47 -24.51 -2.4 -0.17 -0.67c-15.16,6.6 -33.75,26.53 -43.35,38.96 -12.1,15.64 -8.91,49.37 -5.32,70.99 12.9,77.69 60.73,155.88 122.84,196.74 13.83,9.09 32.65,24.78 53.94,26.62 16.67,1.44 53.26,-12.51 62.37,-20.32l9.76 -23.07c-10.54,-6.19 -49.13,-41.08 -61.96,-52.39l-19.41 10.59 -9.56 18.91c-14.14,-0.24 -25.14,-24.53 -35.66,-42.04 -10.53,-17.51 -18.77,-31.8 -29.54,-47.99 -7.49,-11.27 -38.1,-60.41 -42.61,-72.88l22.92 -8.65 -0.06 -0.22z"/>
   </g>
   <path class="fil1" d="M482.59 0.53c266.53,0 482.6,216.07 482.6,482.6 0,266.53 -216.07,482.6 -482.6,482.6 -266.53,0 -482.6,-216.07 -482.6,-482.6 0,-266.53 216.07,-482.6 482.6,-482.6zm0 33.87c247.82,0 448.73,200.91 448.73,448.73 0,247.82 -200.91,448.73 -448.73,448.73 -247.82,0 -448.73,-200.91 -448.73,-448.73 0,-247.82 200.91,-448.73 448.73,-448.73z"/>
  </g>
 </g>
</svg>
