<?xml version="1.0" encoding="UTF-8"?>
<!DOCTYPE svg PUBLIC "-//W3C//DTD SVG 1.1//EN" "http://www.w3.org/Graphics/SVG/1.1/DTD/svg11.dtd">
<!-- Creator: CorelDRAW -->
<svg xmlns="http://www.w3.org/2000/svg" xml:space="preserve" width="9.6518mm" height="9.6518mm" version="1.1" style="shape-rendering:geometricPrecision; text-rendering:geometricPrecision; image-rendering:optimizeQuality; fill-rule:evenodd; clip-rule:evenodd"
viewBox="0 0 965.18 965.18"
 xmlns:xlink="http://www.w3.org/1999/xlink"
 xmlns:xodm="http://www.corel.com/coreldraw/odm/2003">
 <defs>
  <style type="text/css">
   <![CDATA[
    .fil0 {fill:black}
    .fil1 {fill:#E4EBF3}
   ]]>
  </style>
 </defs>
 <g id="Layer_x0020_1">
  <metadata id="CorelCorpID_0Corel-Layer"/>
  <g id="_2058632675360">
   <path class="fil0" d="M409.56 511.46l-85.44 108.12c-16.51,19.02 -42.96,53.95 -59.73,74.85l-66.35 85.03 91.26 -0.01 111.55 -141.89c3.92,-4.87 6.45,-8.36 10.41,-12.77l25.53 -31.99c2.23,-2.65 2.98,-4.41 5.24,-7.09 3.97,-4.7 6.56,-9.19 10.4,-12.46 3.69,2.99 14.07,18.89 17.99,24.58l117.2 169.01c2.37,3.42 6.08,10.27 9.91,12.62l181.38 0c-3.36,-7.33 -9.81,-15.74 -14.26,-22.25 -5.22,-7.63 -9.72,-14.05 -14.56,-21.03 -9.99,-14.43 -19.25,-28.37 -28.98,-42.3 -19.92,-28.51 -39.1,-56.87 -58.44,-85.31l-109.49 -159.57c-2.48,-3.55 -5.5,-7.36 -7.34,-10.93l86.01 -108.94c2.55,-3.18 3.74,-4.05 6.06,-7.37l105.81 -134.45c-21.93,-1.1 -52.85,-0.07 -76.54,-0.17 -12.81,-0.05 -13.14,-2.07 -19.47,7.23 -2.23,3.28 -3.52,4.23 -6.05,7.36l-11.71 15.31c-2.33,3.07 -3.96,4.27 -6.11,7.3l-59.97 75.99c-16.64,19.57 -47.37,61.39 -60.36,75.25 -4.34,-3.91 -12.41,-17.04 -16.28,-22.82 -9.58,-14.33 -111.92,-164.75 -114.89,-165.61l-186.09 0c3.99,8.42 106.48,154.89 111.5,162.11 9.33,13.41 18.76,26.35 27.69,39.88l70.48 101.43c3.66,5.18 11.37,15.49 13.64,20.89zm213.51 207.85l48.03 0c-2.69,-6.51 -35.67,-53.34 -40.35,-60.19l-123.05 -179.15c-27.3,-39.55 -54.13,-79.98 -81.4,-118.9 -14.2,-20.26 -26.85,-39.16 -40.98,-59.74l-35.48 -51.76c-1.86,-2.85 -2.64,-5.39 -7.68,-5.39l-49.63 0.09 205.78 297.24c34.21,48.68 68.89,100.68 103.11,148.66 3.74,5.25 16.2,26.21 21.65,29.14z"/>
   <path class="fil1" d="M482.58 0.53c266.53,0 482.6,216.07 482.6,482.6 0,266.53 -216.07,482.6 -482.6,482.6 -266.53,0 -482.6,-216.07 -482.6,-482.6 0,-266.53 216.07,-482.6 482.6,-482.6zm0 33.87c247.82,0 448.73,200.91 448.73,448.73 0,247.82 -200.91,448.73 -448.73,448.73 -247.82,0 -448.73,-200.91 -448.73,-448.73 0,-247.82 200.91,-448.73 448.73,-448.73z"/>
  </g>
 </g>
</svg>
